<svg xmlns="http://www.w3.org/2000/svg" version="1.1" xmlns:xlink="http://www.w3.org/1999/xlink" xmlns:svgjs="http://svgjs.dev/svgjs" width="2000" height="2250" viewBox="0 0 2000 2250"><g transform="matrix(1,0,0,1,0.000015624999718966137,0)"><svg viewBox="0 0 320 360" data-background-color="#fafafa" preserveAspectRatio="xMidYMid meet" height="2250" width="2000" xmlns="http://www.w3.org/2000/svg" xmlns:xlink="http://www.w3.org/1999/xlink"><g id="tight-bounds" transform="matrix(1,0,0,1,0.0000025000000505315256,0)"><svg viewBox="0 0 320 360" height="360" width="320"><g><svg></svg></g><g><svg viewBox="0 0 320 360" height="360" width="320"><g><path transform="translate(-19.44751,3.1739) scale(3.53591,3.53591)" d="M67.6 10.7c0.2 0 1.8 0.8 2.7 1.1-0.3 0.1-1-0.2-1.8-0.5 0.2 0 0.6 0.1 1 0.3-0.2-0.2-1.7-0.7-1.9-0.9M52.7 7.6c0.3-0.1 3.8 0.4 5.4 0.5 0.1-0.1-0.2-0.1-0.6-0.2 0.5-0.1 1.5 0.2 2.2 0.3-2.1 0.1-4.4-0.5-6.4-0.3-0.7 0-0.2-0.2-0.6-0.3M49.8 7.6c1.8 0 3.2 0 0.6 0.2-0.3-0.1-0.7-0.1-0.6-0.2M78.1 15.9c0.2 0 1 0.9 1.4 1.2-0.1 0.1-0.9-0.7-1.3-1 0.1 0.1 0 0-0.1-0.2M76.1 14.6c-0.8-0.7-1.1-0.7-1.2-1.1 0.7 0.4 1.2 0.8 1.2 1.1M63.2 8.3c0.1-0.1 0.3 0.1 0.8 0.2-0.6-0.1-0.5 0-0.3 0.2-0.7-0.1-0.9-0.2-0.7-0.4 0.4 0.2 0.5 0.1 0.2 0M34.8 9.5c0-0.1 0.4-0.3 0.7-0.4-0.3 0.2-0.2 0.3 0.3 0.1 0 0.1-0.6 0.3-1 0.5 0.2-0.1 0.4-0.4 0-0.2M65.2 7.3c-0.3 0.1-1.4-0.5-2.5-0.7-0.6-0.2 2.4 0.5 2.5 0.7M6.2 56.7c0.6 2.5 0.2 2.4 0 0M6.3 41.7c0.1-0.4 0.2-1.5 0.3-1.4-0.3 2.4-0.8 3.5-0.9 5.3 0.3-1.6-0.1 0.9-0.2 1.5 0.1 0.8 0.1-0.5 0.3-0.3 0.2 0.3-0.4 4.5-0.2 2.2-0.2 2.1 0 4.4 0.4 5-0.5 3.2 2 10.4 2.5 11.9 0.1 0.1 0-0.5 0.2-0.1 0.2 1.3 1.1 2.2 1.4 3.6 0.3 0.4 1.5 2.6 1.7 3.1 0.4 0.8 0.6 0.7 1 1.5 1.2 2.3 3.1 4.5 4.9 6.6 5.8 6.8 14.7 12.4 24.6 14.4 9.9 2.1 20.3 0.6 28.4-3.3 0.5-0.3 0.4-0.4 1-0.6 2.8-0.9 6.2-3.8 8.1-4.9 0.9-1 3.3-2.7 3.6-3.7 1.7-1.4 3.4-3.7 4.3-5.2 0.5-0.8 0.9-0.8 1.1-1.3-0.1 0 1.6-2.1 2.1-3.3-0.2 0-0.5 0.6-0.5 0 3.6-6.9 5.6-16.2 4.5-22.6 0.2 7.9-1.8 16.7-5.6 22.3-1.7 3.6-5.2 7.5-8.4 10.3-0.5 0.5-1 1.1-1.6 1.5-1.9 1.6-4 2.9-6.2 4.1-5.2 2.9-11 5.4-17.8 5.5 11.7-1 22.2-6.9 28-14.1-4.4 4.3-6.3 6-11.2 8.5-0.4 0.7-3.7 2.1-5.9 2.7 1.3-0.6 4-1.6 4.9-2.4-7.3 3.5-15.4 5.5-23 4.4 2.9 0 7 0.1 10.9-0.6 0.6-0.2 0.9-0.4 1.6-0.5 7.6-1.7 14.9-5.4 20.1-10.6-3 2.7-7.5 5.9-10.4 6.9 2.7-1.5 7.6-4.4 9.2-6.6-3.2 3.2-9.2 6.4-13 7.8-0.6 0.1 0.4-0.4-0.6 0-1.2 0.3-0.7 0.3-1 0.5-4.6 1.3-9.9 2.4-14.3 2-0.8-0.1-1.1-0.3-1.8-0.3-0.8-0.1-1.5-0.1-2.4-0.1-3.5-0.4-7.3-1.8-10.1-3-1.5-0.7-3-1.2-4.5-2.1-1.2-0.7-2.2-1.5-3.2-2.3-3.8-2.8-7-5.6-10-9.6-5.4-7.5-8.2-16.9-7.8-26.2 0.4-9.3 4.1-18.4 10-25.1-0.3 0.3 0.4-0.7 1-1.3 0 0.2-0.1 0.5 0.6-0.2 0.6-0.7-0.2-0.2 0.1-0.6 6.2-6.8 17-12.3 28.1-12.5 0.4-0.3 1.1-0.7 1.9-0.5 0 0.1-0.5 0.1-0.5 0.1 1.1-0.1 2.1-0.1 2.6 0.1 0.1-0.1-0.4-0.2 0-0.2 0.7 0.2 0.9 0 1.3 0.2-0.3 0-0.6 0-0.8 0.1 2.5 0 4.1 0.6 6.6 0.8-1.3-0.3-1.6-0.3-2.6-0.6 1.1 0.2 1.6 0.4 2.1 0.3-0.2 0-0.1-0.3 0.1-0.2 2 0.5 2.2 0.7 4.3 1.4 0.2-0.2-0.9-0.3-1.2-0.6 2 0.7 3.8 1.2 5 2-0.4-0.3-1.6-0.7-2.5-1.1-0.1 0.1 0.3 0.2 0.4 0.4-1-0.5-2.4-1-3.8-1.2 1.2 0.3 2 0.7 2.5 0.9-1.1-0.2-2.5-0.9-4.1-1.2 2.6 0.8 7.5 2.6 10.5 4.2-1.1-0.7-2.4-1.2-3.1-1.6 0.6 0.1 1.3 0.5 1.3 0.3 0.7 0.3 1.6 1 2.1 1.1-0.9-0.6-2.7-1.5-3.3-1.8 7.5 3.4 14.2 9.1 18.5 16.4 0.4 0.7 1 2.3 1.5 2.5-0.1-0.5-0.5-0.8-0.9-1.6 0.2 0 0.2-0.3 0-0.6-0.4-0.5 0 0.4-0.4-0.1-1.8-3.3-4-6.2-7.4-9.4 1.9 1.8 0.5 0.5 0.1-0.1 2.6 2.3 5.6 6.2 6.9 8.2-0.2-0.3-0.3-0.5-0.2-0.5 2.4 4.1 3.9 7.8 5.4 13.1 0.1 0.1 0-0.4 0.2-0.1 1 4.2 1.3 7.7 1.2 10.9 0.8-5.4-1-13.8-4.2-20.4-0.4-0.8-0.4-0.2-0.8-1.1 0-0.3-0.3-0.9-0.5-1.3-4-6.6-8.9-11.3-14.7-15 0.4 0.2 1.2 0.8 1.2 0.7-10.8-7.1-23.3-8.1-33.6-5.9-0.7 0.3-1 0.6-1.8 1 1.5-0.5 2.4-0.6 3.8-0.9 0.3-0.3-1.3 0.1-0.6-0.2 0.1 0.1 1.4-0.2 1.7-0.1 0 0.1-0.4 0.2-0.5 0.3 3.3-0.7 6.7-0.8 9.6-0.6-1.7 0.1-4.8-0.2-5.8 0.3 1-0.1 2.4-0.2 3.3-0.1-1.2 0-3.4 0.1-4.4 0.2-0.1-0.1 1.6-0.3 0.5-0.3-0.5 0.1-1.3 0.1-1.6 0.4-8.6 0.8-17 5.3-22.9 10.6-1.2 1-2.6 2.1-3.5 3.2-2.2 2.5-3.6 5-5.2 7.2 1-2.1 3.2-5.3 5.8-8 2.6-2.7 5.4-5 6.9-6.2 0 0.4 2.4-1.5 3.3-2.1-0.6 0.5 0.4-0.2 0.6-0.1 3.2-1.9 5.8-2.6 8.7-3.7-0.7 0.2-1.3 0.4-1.4 0.3 0.7-0.2 1.1-0.4 1-0.5-2.8 0.8-7.2 2.7-10.7 4.8 6.3-4.3 14.3-6.9 22.2-7 7.9-0.2 15.6 1.8 21.7 5 4.1 1.8 8 5.1 11.1 8.3 0.9 0.8 0.2-0.2 1.5 1.2-0.4-0.2-0.7-0.4-0.2 0.2 0.8 0.9-0.2-0.7 1.1 0.9-0.1 0-0.5-0.5-0.5-0.3 3.5 3.1 6.2 8.7 7.8 12.4-0.4-1.5-1.4-3.6-2.2-5.1 2.4 4.4 3.2 7 4.2 10.9 0.4 0.3-0.2-1.4 0.2-0.6 0.1 0.6 0.2 2.5 0.6 2.8-0.3-1.9-0.8-4.2-1.2-4.6 0.3 0.2-0.5-2.3-1-2.9-0.2-1.6-1.6-4.4-2.8-6.5-4.3-8.4-12-15.3-20.6-19.1 0-0.2-0.5-0.4-0.7-0.6-8.5-3.6-18.7-4.6-28.5-2.3-9.9 2.4-19.2 8.1-25.8 16.3 0.3-1 2.8-2.9 2.9-3.7-2.9 3.1-6 7.2-8.1 11.6-2.2 4.4-3.4 8.9-3.9 12.2" fill="#130912" fill-rule="nonzero" stroke="none" stroke-width="1" stroke-linecap="butt" stroke-linejoin="miter" stroke-miterlimit="10" stroke-dasharray="" stroke-dashoffset="0" font-family="none" font-weight="none" font-size="none" text-anchor="none" style="mix-blend-mode: normal" data-fill-palette-color="tertiary"></path></g><g transform="matrix(1,0,0,1,48,129.01616866611155)"><svg viewBox="0 0 224 101.96766266777688" height="101.96766266777688" width="224"><g><svg viewBox="0 0 328.7963808412858 149.6723145000452" height="101.96766266777688" width="224"><g><svg viewBox="0 0 328.7963808412858 149.6723145000452" height="149.6723145000452" width="328.7963808412858"><g id="textblocktransform"><svg viewBox="0 0 328.7963808412858 149.6723145000452" height="149.6723145000452" width="328.7963808412858" id="textblock"><g><svg viewBox="0 0 328.7963808412858 114.06900000000002" height="114.06900000000002" width="328.7963808412858"><g><svg><g></g><g></g></svg></g><g><svg><g><svg></svg></g><g></g></svg></g><g id="text-0"><svg viewBox="0 0 328.7963808412858 114.06900000000002" height="114.06900000000002" width="328.7963808412858"><g transform="matrix(1,0,0,1,0,29.221889926030293)"><svg width="224" viewBox="-0.25 -34.55 141.94 35.25" height="55.62522014793943" data-palette-color="#130912"><g class="wordmark-text-0" data-fill-palette-color="primary"><path d="M17.85-34.55L24.35-34.55 15.25-13.15 15.25 0 8.85 0 8.85-13.1-0.25-34.55 6.5-34.55 12.15-18.3 17.85-34.55ZM48.45-34.55L48.45-9.7Q48.45-5.15 45.62-2.23 42.8 0.7 37.55 0.7L37.55 0.7Q32.2 0.7 29.4-2.18 26.6-5.05 26.6-9.7L26.6-9.7 26.6-34.55 32.95-34.55 32.95-10Q32.95-7.1 34.05-5.68 35.15-4.25 37.55-4.25L37.55-4.25Q39.9-4.25 41-5.68 42.1-7.1 42.1-10L42.1-10 42.1-34.55 48.45-34.55ZM80-34.55L82.2 0 76.15 0 75.55-14.6Q75.25-22.6 75.25-26L75.25-26 75.3-28.6 70.55-3.8 64.55-3.8 59.6-28.65Q59.65-27.15 59.65-24.05L59.65-24.05Q59.65-18.8 59.45-14.4L59.45-14.4 58.9 0 52.95 0 55.15-34.55 63.15-34.55 67.65-10.2 71.85-34.55 80-34.55ZM113.19-34.55L115.39 0 109.34 0 108.74-14.6Q108.44-22.6 108.44-26L108.44-26 108.49-28.6 103.74-3.8 97.74-3.8 92.79-28.65Q92.84-27.15 92.84-24.05L92.84-24.05Q92.84-18.8 92.64-14.4L92.64-14.4 92.09 0 86.14 0 88.34-34.55 96.34-34.55 100.84-10.2 105.04-34.55 113.19-34.55ZM135.19-34.55L141.69-34.55 132.59-13.15 132.59 0 126.19 0 126.19-13.1 117.09-34.55 123.84-34.55 129.49-18.3 135.19-34.55Z" fill="#130912" data-fill-palette-color="primary"></path></g></svg></g><g><svg xmlns="http://www.w3.org/2000/svg" viewBox="8 2.0497186760416364 48 59.950281323958365" x="237.4655" y="0" height="114.06900000000002" width="91.33088084128576" class="icon-cg-0" data-fill-palette-color="accent" id="cg-0"><g data-name="Layer 2" fill="#e77917" data-fill-palette-color="accent"><path d="M21 62H43A13 13 0 0 0 56 49V28A13 13 0 0 0 43 15H40.16c0.47-2.48 2.08-8.37 7-8.95a3 3 0 1 0 0-2c-6 0.55-8.44 6.87-9.05 10.94H25.88c-0.61-4.07-3.1-10.39-9-10.94a3 3 0 1 0 0 2c5 0.58 6.57 6.47 7 9H21A13 13 0 0 0 8 28V49A13 13 0 0 0 21 62ZM50 4a1 1 0 1 1-1 1A1 1 0 0 1 50 4ZM14 6a1 1 0 1 1 1-1A1 1 0 0 1 14 6ZM10 28A11 11 0 0 1 21 17H43A11 11 0 0 1 54 28V49A11 11 0 0 1 43 60H21A11 11 0 0 1 10 49Z" fill="#e77917" data-fill-palette-color="accent"></path><path d="M14 38a1 1 0 0 0 1-1 6 6 0 0 1 12 0 1 1 0 0 0 2 0 8 8 0 0 0-16 0A1 1 0 0 0 14 38Z" fill="#e77917" data-fill-palette-color="accent"></path><path d="M36 38a1 1 0 0 0 1-1 6 6 0 0 1 12 0 1 1 0 0 0 2 0 8 8 0 0 0-16 0A1 1 0 0 0 36 38Z" fill="#e77917" data-fill-palette-color="accent"></path><path d="M27.5 48.34a3.44 3.44 0 0 0-1.88-1.27 17.89 17.89 0 0 0-1.76-3.59 1 1 0 0 0-1.72 1c2.38 3.94 2.27 4.89 0.65 8a1 1 0 0 0 0.42 1.35 1.11 1.11 0 0 0 0.46 0.11 1 1 0 0 0 0.89-0.54 10.89 10.89 0 0 0 1.36-3.88l0.08 0.08A3.17 3.17 0 0 0 28.5 51 3.2 3.2 0 0 0 31 49.66c0.43-0.5 0.61-0.66 1-0.66s0.57 0.16 1 0.66a3 3 0 0 0 5 0l0.08-0.09a10.87 10.87 0 0 0 1.36 3.89 1 1 0 0 0 0.89 0.54 1.11 1.11 0 0 0 0.46-0.11 1 1 0 0 0 0.42-1.35c-1.62-3.13-1.73-4.08 0.65-8a1 1 0 1 0-1.72-1 17.89 17.89 0 0 0-1.76 3.59 3.41 3.41 0 0 0-1.88 1.27c-0.44 0.5-0.61 0.66-1 0.66s-0.57-0.16-1-0.66a3 3 0 0 0-5 0c-0.43 0.5-0.61 0.66-1 0.66S27.94 48.84 27.5 48.34Z" fill="#e77917" data-fill-palette-color="accent"></path><path d="M45.29 45.29l-1 1a1 1 0 0 0 0 1.42 1 1 0 0 0 1.42 0l1-1a1 1 0 0 0-1.42-1.42Z" fill="#e77917" data-fill-palette-color="accent"></path><path d="M43 49H42a1 1 0 0 0 0 2h1a1 1 0 0 0 0-2Z" fill="#e77917" data-fill-palette-color="accent"></path><path d="M20 46a1 1 0 0 0-1-1H18a1 1 0 0 0 0 2h1A1 1 0 0 0 20 46Z" fill="#e77917" data-fill-palette-color="accent"></path><path d="M20.55 48.11l-2 1a1 1 0 0 0-0.44 1.34A1 1 0 0 0 19 51a0.93 0.93 0 0 0 0.45-0.11l2-1a1 1 0 1 0-0.9-1.78Z" fill="#e77917" data-fill-palette-color="accent"></path></g></svg></g></svg></g></svg></g><g transform="matrix(1,0,0,1,0,127.20077947164496)"><svg viewBox="0 0 328.7963808412858 22.471535028400233" height="22.471535028400233" width="328.7963808412858"><g transform="matrix(1,0,0,1,0,0)"><svg width="328.7963808412858" viewBox="2.75 -39.65 792.35 50.5" height="22.471535028400233" data-palette-color="#130912"><g class="slogan-text-1" data-fill-palette-color="secondary" id="text-1"><path d="M20.2-34.55L26.95-34.55 15-13.1 13.15 0 6.85 0 8.65-13.1 2.75-34.55 9.35-34.55 12.55-18.15 20.2-34.55ZM30.65 0.75Q28.25 0.75 26.83-0.88 25.4-2.5 25.4-5.25L25.4-5.25Q25.4-6.25 25.5-6.8L25.5-6.8 28.2-26.45 34.25-26.45 31.55-7.15Q31.5-6.85 31.5-6.35L31.5-6.35Q31.5-4.4 32.9-4.4L32.9-4.4Q35.1-4.4 37.7-9.05L37.7-9.05 40.2-26.45 46.2-26.45 42.5 0 37.3 0 37.55-4.05Q36-1.7 34.45-0.48 32.9 0.75 30.65 0.75L30.65 0.75ZM75.1-27.2Q77.35-27.2 78.73-25.55 80.1-23.9 80.1-21.05L80.1-21.05Q80.1-20.2 79.95-19.3L79.95-19.3 77.15 0 71.1 0 73.7-18.6Q73.8-19.5 73.8-19.85L73.8-19.85Q73.8-21.95 72.55-21.95L72.55-21.95Q71.5-21.95 70.43-20.4 69.35-18.85 67.9-15.85L67.9-15.85 65.6 0 59.55 0 62.15-18.6Q62.25-19.5 62.25-19.85L62.25-19.85Q62.25-21.95 61-21.95L61-21.95Q59.95-21.95 58.83-20.35 57.7-18.75 56.3-15.75L56.3-15.75 54.15 0 48.1 0 51.8-26.45 57.05-26.45 56.8-22.15Q58.25-24.55 59.88-25.88 61.5-27.2 63.55-27.2L63.55-27.2Q65.5-27.2 66.8-25.93 68.1-24.65 68.4-22.3L68.4-22.3Q69.95-24.7 71.53-25.95 73.1-27.2 75.1-27.2L75.1-27.2ZM109.6-27.2Q111.85-27.2 113.23-25.55 114.6-23.9 114.6-21.05L114.6-21.05Q114.6-20.2 114.45-19.3L114.45-19.3 111.65 0 105.6 0 108.2-18.6Q108.3-19.5 108.3-19.85L108.3-19.85Q108.3-21.95 107.05-21.95L107.05-21.95Q106-21.95 104.93-20.4 103.85-18.85 102.4-15.85L102.4-15.85 100.1 0 94.05 0 96.65-18.6Q96.75-19.5 96.75-19.85L96.75-19.85Q96.75-21.95 95.5-21.95L95.5-21.95Q94.45-21.95 93.33-20.35 92.2-18.75 90.8-15.75L90.8-15.75 88.65 0 82.6 0 86.3-26.45 91.55-26.45 91.3-22.15Q92.75-24.55 94.38-25.88 96-27.2 98.05-27.2L98.05-27.2Q100-27.2 101.3-25.93 102.6-24.65 102.9-22.3L102.9-22.3Q104.45-24.7 106.03-25.95 107.6-27.2 109.6-27.2L109.6-27.2ZM139.15-26.45L128.7 0.15Q126.65 5.5 123.53 7.93 120.4 10.35 115.3 10.85L115.3 10.85 115.2 6.55Q118.5 5.85 120.15 4.53 121.8 3.2 123.2 0L123.2 0 120.95 0 118.1-26.45 124.35-26.45 125.45-4.25 132.8-26.45 139.15-26.45ZM140.85 0.75Q139.3 0.75 138.38-0.23 137.45-1.2 137.45-2.7L137.45-2.7Q137.45-4.5 138.65-5.78 139.85-7.05 141.6-7.05L141.6-7.05Q143.2-7.05 144.1-6.08 145-5.1 145-3.6L145-3.6Q145-1.8 143.83-0.53 142.65 0.75 140.85 0.75L140.85 0.75ZM143.35-17.05Q141.8-17.05 140.88-18.03 139.95-19 139.95-20.5L139.95-20.5Q139.95-22.3 141.15-23.58 142.35-24.85 144.1-24.85L144.1-24.85Q145.7-24.85 146.6-23.88 147.5-22.9 147.5-21.4L147.5-21.4Q147.5-19.6 146.33-18.32 145.15-17.05 143.35-17.05L143.35-17.05Z" fill="#130912" data-fill-palette-color="primary"></path><path d="M187.39-34.55L194.14-34.55 182.19-13.1 180.34 0 174.04 0 175.84-13.1 169.94-34.55 176.54-34.55 179.74-18.15 187.39-34.55ZM201.09 0.75Q196.94 0.75 194.64-1.93 192.34-4.6 192.34-9.4L192.34-9.4Q192.34-13.8 193.72-17.85 195.09-21.9 197.97-24.53 200.84-27.15 205.09-27.15L205.09-27.15Q209.24-27.15 211.52-24.53 213.79-21.9 213.79-17.05L213.79-17.05Q213.79-12.7 212.44-8.63 211.09-4.55 208.22-1.9 205.34 0.75 201.09 0.75L201.09 0.75ZM201.49-3.95Q203.69-3.95 205.07-6.23 206.44-8.5 207.04-11.68 207.64-14.85 207.64-17.8L207.64-17.8Q207.64-22.5 204.69-22.5L204.69-22.5Q202.49-22.5 201.12-20.25 199.74-18 199.14-14.8 198.54-11.6 198.54-8.65L198.54-8.65Q198.54-3.95 201.49-3.95L201.49-3.95ZM222.09 0.75Q219.69 0.75 218.27-0.88 216.84-2.5 216.84-5.25L216.84-5.25Q216.84-6.25 216.94-6.8L216.94-6.8 219.64-26.45 225.69-26.45 222.99-7.15Q222.94-6.85 222.94-6.35L222.94-6.35Q222.94-4.4 224.34-4.4L224.34-4.4Q226.54-4.4 229.14-9.05L229.14-9.05 231.64-26.45 237.64-26.45 233.94 0 228.74 0 228.99-4.05Q227.44-1.7 225.89-0.48 224.34 0.75 222.09 0.75L222.09 0.75ZM254.59-27.1Q255.59-27.1 256.74-26.75L256.74-26.75 254.84-20.85Q253.94-21.1 253.09-21.1L253.09-21.1Q251.19-21.1 249.84-19.07 248.49-17.05 247.39-13.2L247.39-13.2 245.59 0 239.54 0 243.24-26.45 248.44-26.45 248.19-21.85Q249.44-24.45 250.97-25.78 252.49-27.1 254.59-27.1L254.59-27.1Z" fill="#e77917" data-fill-palette-color="accent"></path><path d="M291.28-35.25Q297.03-35.25 300.48-30.95L300.48-30.95 297.08-27.65Q295.78-29.05 294.43-29.73 293.08-30.4 291.38-30.4L291.38-30.4Q289.08-30.4 287.71-29 286.33-27.6 286.33-25.4L286.33-25.4Q286.33-23.75 287.31-22.7 288.28-21.65 291.13-20.3L291.13-20.3Q294.58-18.65 296.26-16.57 297.93-14.5 297.93-11.1L297.93-11.1Q297.93-7.85 296.33-5.13 294.73-2.4 291.88-0.83 289.03 0.75 285.43 0.75L285.43 0.75Q282.13 0.75 279.68-0.53 277.23-1.8 275.33-4.05L275.33-4.05 278.93-7.4Q280.48-5.75 281.98-4.95 283.48-4.15 285.53-4.15L285.53-4.15Q288.18-4.15 289.83-5.83 291.48-7.5 291.48-10.35L291.48-10.35Q291.48-12.3 290.43-13.48 289.38-14.65 286.48-16.05L286.48-16.05Q282.98-17.75 281.48-19.65 279.98-21.55 279.98-24.65L279.98-24.65Q279.98-27.5 281.43-29.95 282.88-32.4 285.46-33.83 288.03-35.25 291.28-35.25L291.28-35.25ZM316.33-27.2Q318.68-27.2 320.11-25.55 321.53-23.9 321.53-21.05L321.53-21.05Q321.53-20.2 321.38-19.3L321.38-19.3 318.63 0 312.58 0 315.18-18.6Q315.28-19.4 315.28-19.7L315.28-19.7Q315.28-21.85 313.78-21.85L313.78-21.85Q311.68-21.85 308.63-15.7L308.63-15.7 306.53 0 300.48 0 305.68-37 311.78-37.6 309.63-22.35Q312.48-27.2 316.33-27.2L316.33-27.2ZM333.28 0.75Q329.13 0.75 326.83-1.93 324.53-4.6 324.53-9.4L324.53-9.4Q324.53-13.8 325.91-17.85 327.28-21.9 330.16-24.53 333.03-27.15 337.28-27.15L337.28-27.15Q341.43-27.15 343.71-24.53 345.98-21.9 345.98-17.05L345.98-17.05Q345.98-12.7 344.63-8.63 343.28-4.55 340.41-1.9 337.53 0.75 333.28 0.75L333.28 0.75ZM333.68-3.95Q335.88-3.95 337.26-6.23 338.63-8.5 339.23-11.68 339.83-14.85 339.83-17.8L339.83-17.8Q339.83-22.5 336.88-22.5L336.88-22.5Q334.68-22.5 333.31-20.25 331.93-18 331.33-14.8 330.73-11.6 330.73-8.65L330.73-8.65Q330.73-3.95 333.68-3.95L333.68-3.95ZM363.38-27.1Q364.38-27.1 365.53-26.75L365.53-26.75 363.63-20.85Q362.73-21.1 361.88-21.1L361.88-21.1Q359.98-21.1 358.63-19.07 357.28-17.05 356.18-13.2L356.18-13.2 354.38 0 348.33 0 352.03-26.45 357.23-26.45 356.98-21.85Q358.23-24.45 359.76-25.78 361.28-27.1 363.38-27.1L363.38-27.1ZM374.38-22L372.23-6.8Q372.18-6.55 372.18-6.1L372.18-6.1Q372.18-4.2 373.93-4.2L373.93-4.2Q374.53-4.2 375.08-4.4 375.63-4.6 376.48-5.05L376.48-5.05 377.98-1.1Q375.38 0.75 372.23 0.75L372.23 0.75Q369.33 0.75 367.73-0.9 366.13-2.55 366.13-5.45L366.13-5.45Q366.13-5.9 366.23-7L366.23-7 368.33-22 365.13-22 365.78-26.45 369.18-26.45 370.68-32.45 375.93-33.05 374.98-26.45 379.93-26.45 378.58-22 374.38-22ZM393.58-27.15Q395.78-27.15 397.45-26.4 399.13-25.65 400.53-24.1L400.53-24.1 397.48-20.7Q396.48-21.55 395.63-21.95 394.78-22.35 393.68-22.35L393.68-22.35Q390.33-22.35 388.76-18.32 387.18-14.3 387.18-9.3L387.18-9.3Q387.18-6.6 388.03-5.4 388.88-4.2 390.48-4.2L390.48-4.2Q391.58-4.2 392.56-4.63 393.53-5.05 394.88-5.95L394.88-5.95 397.08-2.15Q393.48 0.75 389.58 0.75L389.58 0.75Q385.53 0.75 383.21-1.98 380.88-4.7 380.88-9.5L380.88-9.5Q380.88-14.05 382.33-18.07 383.78-22.1 386.63-24.63 389.48-27.15 393.58-27.15L393.58-27.15ZM406.13 0.75Q403.73 0.75 402.3-0.88 400.88-2.5 400.88-5.25L400.88-5.25Q400.88-6.25 400.98-6.8L400.98-6.8 403.68-26.45 409.73-26.45 407.03-7.15Q406.98-6.85 406.98-6.35L406.98-6.35Q406.98-4.4 408.38-4.4L408.38-4.4Q410.58-4.4 413.18-9.05L413.18-9.05 415.68-26.45 421.68-26.45 417.98 0 412.78 0 413.03-4.05Q411.48-1.7 409.93-0.48 408.38 0.75 406.13 0.75L406.13 0.75ZM433.33-22L431.18-6.8Q431.13-6.55 431.13-6.1L431.13-6.1Q431.13-4.2 432.88-4.2L432.88-4.2Q433.48-4.2 434.03-4.4 434.58-4.6 435.43-5.05L435.43-5.05 436.93-1.1Q434.33 0.75 431.18 0.75L431.18 0.75Q428.28 0.75 426.68-0.9 425.08-2.55 425.08-5.45L425.08-5.45Q425.08-5.9 425.18-7L425.18-7 427.28-22 424.08-22 424.73-26.45 428.13-26.45 429.63-32.45 434.88-33.05 433.93-26.45 438.88-26.45 437.53-22 433.33-22Z" fill="#130912" data-fill-palette-color="primary"></path><path d="M469.27-22L467.12-6.8Q467.07-6.55 467.07-6.1L467.07-6.1Q467.07-4.2 468.82-4.2L468.82-4.2Q469.42-4.2 469.97-4.4 470.52-4.6 471.37-5.05L471.37-5.05 472.87-1.1Q470.27 0.75 467.12 0.75L467.12 0.75Q464.22 0.75 462.62-0.9 461.02-2.55 461.02-5.45L461.02-5.45Q461.02-5.9 461.12-7L461.12-7 463.22-22 460.02-22 460.67-26.45 464.07-26.45 465.57-32.45 470.82-33.05 469.87-26.45 474.82-26.45 473.47-22 469.27-22ZM484.47 0.75Q480.32 0.75 478.02-1.93 475.72-4.6 475.72-9.4L475.72-9.4Q475.72-13.8 477.1-17.85 478.47-21.9 481.35-24.53 484.22-27.15 488.47-27.15L488.47-27.15Q492.62-27.15 494.9-24.53 497.17-21.9 497.17-17.05L497.17-17.05Q497.17-12.7 495.82-8.63 494.47-4.55 491.6-1.9 488.72 0.75 484.47 0.75L484.47 0.75ZM484.87-3.95Q487.07-3.95 488.45-6.23 489.82-8.5 490.42-11.68 491.02-14.85 491.02-17.8L491.02-17.8Q491.02-22.5 488.07-22.5L488.07-22.5Q485.87-22.5 484.5-20.25 483.12-18 482.52-14.8 481.92-11.6 481.92-8.65L481.92-8.65Q481.92-3.95 484.87-3.95L484.87-3.95Z" fill="#e77917" data-fill-palette-color="accent"></path><path d="M534.56-35.25Q537.21-35.25 539.14-34.3 541.06-33.35 542.66-31.55L542.66-31.55 539.26-28.2Q538.16-29.3 537.01-29.85 535.86-30.4 534.51-30.4L534.51-30.4Q531.31-30.4 529.26-27.53 527.21-24.65 526.29-20.4 525.36-16.15 525.36-11.8L525.36-11.8Q525.36-7.95 526.59-6.15 527.81-4.35 530.06-4.35L530.06-4.35Q531.66-4.35 532.89-4.98 534.11-5.6 536.11-7.05L536.11-7.05 538.46-3.25Q534.16 0.75 529.01 0.75L529.01 0.75Q524.36 0.75 521.61-2.6 518.86-5.95 518.86-12.15L518.86-12.15Q518.86-18.05 520.59-23.33 522.31-28.6 525.86-31.93 529.41-35.25 534.56-35.25L534.56-35.25ZM547.46 0.75Q545.06 0.75 543.64-0.88 542.21-2.5 542.21-5.25L542.21-5.25Q542.21-6.25 542.31-6.8L542.31-6.8 545.01-26.45 551.06-26.45 548.36-7.15Q548.31-6.85 548.31-6.35L548.31-6.35Q548.31-4.4 549.71-4.4L549.71-4.4Q551.91-4.4 554.51-9.05L554.51-9.05 557.01-26.45 563.01-26.45 559.31 0 554.11 0 554.36-4.05Q552.81-1.7 551.26-0.48 549.71 0.75 547.46 0.75L547.46 0.75ZM575.91-37.7L571.51-5.85Q571.46-5.65 571.46-5.35L571.46-5.35Q571.46-4.25 572.41-4.25L572.41-4.25Q572.96-4.25 573.51-4.45L573.51-4.45 574.16-0.2Q572.46 0.7 570.26 0.7L570.26 0.7Q567.91 0.7 566.64-0.63 565.36-1.95 565.36-4.35L565.36-4.35Q565.36-4.8 565.46-5.7L565.46-5.7 569.86-37.05 575.91-37.7ZM580.86-26.45L586.91-26.45 583.21 0 577.16 0 580.86-26.45ZM584.66-32.2Q583.11-32.2 582.24-33.08 581.36-33.95 581.36-35.45L581.36-35.45Q581.36-37.35 582.54-38.5 583.71-39.65 585.46-39.65L585.46-39.65Q587.01-39.65 587.89-38.78 588.76-37.9 588.76-36.4L588.76-36.4Q588.76-34.55 587.56-33.38 586.36-32.2 584.66-32.2L584.66-32.2ZM604.71-27.2Q607.06-27.2 608.49-25.55 609.91-23.9 609.91-21.05L609.91-21.05Q609.91-20.2 609.76-19.3L609.76-19.3 607.01 0 600.96 0 603.56-18.6Q603.66-19.4 603.66-19.7L603.66-19.7Q603.66-21.85 602.16-21.85L602.16-21.85Q600.06-21.85 597.01-15.7L597.01-15.7 594.86 0 588.81 0 592.51-26.45 597.76-26.45 597.51-22.05Q599.11-24.5 600.84-25.85 602.56-27.2 604.71-27.2L604.71-27.2ZM626.36-27.15Q630.51-27.15 634.51-24.95L634.51-24.95 631.91-6.8Q631.76-5.9 631.76-5.25L631.76-5.25Q631.76-4.6 632.01-4.17 632.26-3.75 632.86-3.45L632.86-3.45 630.96 0.65Q626.96 0.15 626.26-3.25L626.26-3.25Q624.81-1.3 623.29-0.28 621.76 0.75 619.71 0.75L619.71 0.75Q616.46 0.75 614.64-1.75 612.81-4.25 612.81-8.5L612.81-8.5Q612.81-13.15 614.21-17.4 615.61-21.65 618.66-24.4 621.71-27.15 626.36-27.15L626.36-27.15ZM626.01-22.65Q623.66-22.65 622.09-20.55 620.51-18.45 619.74-15.18 618.96-11.9 618.96-8.4L618.96-8.4Q618.96-6 619.61-4.95 620.26-3.9 621.56-3.9L621.56-3.9Q622.76-3.9 623.79-4.88 624.81-5.85 626.06-7.75L626.06-7.75 628.06-22.25Q627.11-22.65 626.01-22.65L626.01-22.65ZM651.56-27.1Q652.56-27.1 653.71-26.75L653.71-26.75 651.81-20.85Q650.91-21.1 650.06-21.1L650.06-21.1Q648.16-21.1 646.81-19.07 645.46-17.05 644.36-13.2L644.36-13.2 642.56 0 636.51 0 640.21-26.45 645.41-26.45 645.16-21.85Q646.41-24.45 647.94-25.78 649.46-27.1 651.56-27.1L651.56-27.1ZM674.86-26.45L664.41 0.15Q662.36 5.5 659.24 7.93 656.11 10.35 651.01 10.85L651.01 10.85 650.91 6.55Q654.21 5.85 655.86 4.53 657.51 3.2 658.91 0L658.91 0 656.66 0 653.81-26.45 660.06-26.45 661.16-4.25 668.51-26.45 674.86-26.45Z" fill="#130912" data-fill-palette-color="primary"></path><path d="M712.35-18.25Q718.35-16.85 718.35-11.5L718.35-11.5Q718.35-6.3 714.88-3.15 711.4 0 704.65 0L704.65 0 695.65 0 700.55-34.55 709.45-34.55Q714.25-34.55 717-32.52 719.75-30.5 719.75-26.9L719.75-26.9Q719.75-23.45 717.73-21.28 715.7-19.1 712.35-18.25L712.35-18.25ZM709.4-29.85L706.15-29.85 704.8-20.3 707.6-20.3Q710.45-20.3 711.9-21.88 713.35-23.45 713.35-26.4L713.35-26.4Q713.35-29.85 709.4-29.85L709.4-29.85ZM705.35-4.8Q708.95-4.8 710.45-6.7 711.95-8.6 711.95-11.65L711.95-11.65Q711.95-13.85 710.85-14.83 709.75-15.8 707.4-15.8L707.4-15.8 704.15-15.8 702.6-4.8 705.35-4.8ZM731.95-37.7L727.55-5.85Q727.5-5.65 727.5-5.35L727.5-5.35Q727.5-4.25 728.45-4.25L728.45-4.25Q729-4.25 729.55-4.45L729.55-4.45 730.2-0.2Q728.5 0.7 726.3 0.7L726.3 0.7Q723.95 0.7 722.68-0.63 721.4-1.95 721.4-4.35L721.4-4.35Q721.4-4.8 721.5-5.7L721.5-5.7 725.9-37.05 731.95-37.7ZM736.9-26.45L742.95-26.45 739.25 0 733.2 0 736.9-26.45ZM740.7-32.2Q739.15-32.2 738.28-33.08 737.4-33.95 737.4-35.45L737.4-35.45Q737.4-37.35 738.58-38.5 739.75-39.65 741.5-39.65L741.5-39.65Q743.05-39.65 743.93-38.78 744.8-37.9 744.8-36.4L744.8-36.4Q744.8-34.55 743.6-33.38 742.4-32.2 740.7-32.2L740.7-32.2ZM755.6-27.15Q758-27.15 760-26.3 762-25.45 763.5-23.9L763.5-23.9 760.75-20.55Q758.4-22.6 755.8-22.6L755.8-22.6Q754.2-22.6 753.28-21.75 752.35-20.9 752.35-19.5L752.35-19.5Q752.35-18.3 753.23-17.5 754.1-16.7 756.4-15.65L756.4-15.65Q759.1-14.45 760.43-12.8 761.75-11.15 761.75-8.45L761.75-8.45Q761.75-5.7 760.43-3.63 759.1-1.55 756.78-0.4 754.45 0.75 751.6 0.75L751.6 0.75Q746.35 0.75 742.8-3.15L742.8-3.15 746.1-6.45Q747.4-5.2 748.7-4.53 750-3.85 751.6-3.85L751.6-3.85Q753.55-3.85 754.58-5 755.6-6.15 755.6-7.7L755.6-7.7Q755.6-9.2 754.75-10.08 753.9-10.95 751.6-11.95L751.6-11.95Q748.8-13.15 747.55-14.73 746.3-16.3 746.3-18.85L746.3-18.85Q746.3-21.1 747.5-23 748.7-24.9 750.83-26.03 752.95-27.15 755.6-27.15L755.6-27.15ZM775.45-27.15Q777.85-27.15 779.85-26.3 781.85-25.45 783.35-23.9L783.35-23.9 780.6-20.55Q778.25-22.6 775.65-22.6L775.65-22.6Q774.05-22.6 773.13-21.75 772.2-20.9 772.2-19.5L772.2-19.5Q772.2-18.3 773.08-17.5 773.95-16.7 776.25-15.65L776.25-15.65Q778.95-14.45 780.28-12.8 781.6-11.15 781.6-8.45L781.6-8.45Q781.6-5.7 780.28-3.63 778.95-1.55 776.63-0.4 774.3 0.75 771.45 0.75L771.45 0.75Q766.2 0.75 762.65-3.15L762.65-3.15 765.95-6.45Q767.25-5.2 768.55-4.53 769.85-3.85 771.45-3.85L771.45-3.85Q773.4-3.85 774.43-5 775.45-6.15 775.45-7.7L775.45-7.7Q775.45-9.2 774.6-10.08 773.75-10.95 771.45-11.95L771.45-11.95Q768.65-13.15 767.4-14.73 766.15-16.3 766.15-18.85L766.15-18.85Q766.15-21.1 767.35-23 768.55-24.9 770.68-26.03 772.8-27.15 775.45-27.15L775.45-27.15ZM791.2-12.1L786.35-12.1 788.7-34.55 795.1-34.55 791.2-12.1ZM787.35 0.75Q785.8 0.75 784.88-0.23 783.95-1.2 783.95-2.7L783.95-2.7Q783.95-4.5 785.15-5.78 786.35-7.05 788.1-7.05L788.1-7.05Q789.7-7.05 790.6-6.08 791.5-5.1 791.5-3.6L791.5-3.6Q791.5-1.8 790.32-0.53 789.15 0.75 787.35 0.75L787.35 0.75Z" fill="#e77917" data-fill-palette-color="accent"></path></g></svg></g></svg></g></svg></g></svg></g><g></g></svg></g></svg></g></svg></g><defs></defs></svg><rect width="320" height="360" fill="none" stroke="none" visibility="hidden"></rect></g></svg></g></svg>